<svg width="320" height="320" viewBox="0 0 320 320" xmlns="http://www.w3.org/2000/svg">
  <rect width="320" height="320" fill="#f8f9fb"/>
  <rect x="12" y="12" width="84" height="84" fill="#0b1529"/>
  <rect x="24" y="24" width="60" height="60" fill="#f8f9fb"/>
  <rect x="36" y="36" width="36" height="36" fill="#0b1529"/>
  <rect x="224" y="12" width="84" height="84" fill="#0b1529"/>
  <rect x="236" y="24" width="60" height="60" fill="#f8f9fb"/>
  <rect x="248" y="36" width="36" height="36" fill="#0b1529"/>
  <rect x="12" y="224" width="84" height="84" fill="#0b1529"/>
  <rect x="24" y="236" width="60" height="60" fill="#f8f9fb"/>
  <rect x="36" y="248" width="36" height="36" fill="#0b1529"/>

  <!-- Padrão interno simples (decorativo) -->
  <rect x="122" y="36" width="20" height="20" fill="#0b1529"/>
  <rect x="162" y="36" width="20" height="20" fill="#0b1529"/>
  <rect x="142" y="60" width="20" height="20" fill="#0b1529"/>
  <rect x="102" y="96" width="20" height="20" fill="#0b1529"/>
  <rect x="182" y="96" width="20" height="20" fill="#0b1529"/>
  <rect x="142" y="120" width="20" height="20" fill="#0b1529"/>
  <rect x="122" y="144" width="20" height="20" fill="#0b1529"/>
  <rect x="162" y="144" width="20" height="20" fill="#0b1529"/>
  <rect x="102" y="168" width="20" height="20" fill="#0b1529"/>
  <rect x="182" y="168" width="20" height="20" fill="#0b1529"/>
  <rect x="142" y="192" width="20" height="20" fill="#0b1529"/>
  <rect x="122" y="216" width="20" height="20" fill="#0b1529"/>
  <rect x="162" y="216" width="20" height="20" fill="#0b1529"/>
  <rect x="102" y="240" width="20" height="20" fill="#0b1529"/>
  <rect x="182" y="240" width="20" height="20" fill="#0b1529"/>
  <rect x="142" y="264" width="20" height="20" fill="#0b1529"/>
</svg>
